<svg width="16" height="16" viewBox="0 0 16 16" fill="none" xmlns="http://www.w3.org/2000/svg">
<path fill-rule="evenodd" clip-rule="evenodd" d="M4.30494 6.9471L4.19739 6.5457C3.65781 4.49313 4.66862 2.43998 6.46968 1.95739C8.27075 1.4748 10.1679 2.74877 10.7171 4.79874L10.8273 5.20969C11.0898 6.18944 11.8698 6.86887 12.6058 7.51003L12.6059 7.51004C13.0113 7.86319 13.4108 8.21118 13.7206 8.60067C14.1149 9.09647 13.7509 9.73737 13.139 9.90133L4.66864 12.1709C4.06527 12.3326 3.44821 11.9437 3.54638 11.3268C3.62306 10.845 3.78296 10.3637 3.94448 9.87753C4.25853 8.93226 4.57867 7.96866 4.30494 6.9471ZM6.10014 13.2752C6.44441 13.967 7.23867 14.3445 8.01399 14.1367C8.78931 13.929 9.28844 13.205 9.24065 12.4337C9.22927 12.2499 9.04272 12.1438 8.8649 12.1915L6.30446 12.8776C6.12664 12.9252 6.01813 13.1103 6.10014 13.2752Z" fill="white"/>
</svg>
