<svg width="16" height="16" viewBox="0 0 16 16" fill="none" xmlns="http://www.w3.org/2000/svg">
<g clip-path="url(#clip0_3192_11843)">
<path fill-rule="evenodd" clip-rule="evenodd" d="M3.32397 5.32663C3.32397 2.38481 5.31129 0 7.76279 0C10.2143 0 12.2016 2.38481 12.2016 5.32663V8.38023C13.2937 9.2013 14 10.5079 14 11.9794C14 14.4647 11.9853 16.4794 9.49998 16.4794H6.50002C4.01473 16.4794 2 14.4647 2 11.9794C2 10.7337 2.50613 9.60625 3.32397 8.79144V5.32663ZM10.6395 7.60978H4.5918V5.49604C4.5918 3.3823 6.09236 1.26855 7.76238 1.26855C9.4324 1.26855 10.933 3.3823 10.6395 5.49604H11.3354H12.2012V7.60978H10.6395ZM8.75 12.5288C9.19835 12.2695 9.5 11.7847 9.5 11.2295C9.5 10.4011 8.82843 9.72949 8 9.72949C7.17157 9.72949 6.5 10.4011 6.5 11.2295C6.5 11.7958 6.81382 12.2888 7.27704 12.5441L7.25 14.2295H8.75V12.5288Z" fill="white"/>
</g>
<defs>
<clipPath id="clip0_3192_11843">
<rect width="16" height="16" fill="white"/>
</clipPath>
</defs>
</svg>
