<svg width="17" height="17" viewBox="0 0 17 17" fill="none" xmlns="http://www.w3.org/2000/svg">
<path fill-rule="evenodd" clip-rule="evenodd" d="M4.47224 14.9141C4.23398 14.9141 3.99633 14.839 3.79045 14.6893C3.3854 14.3948 3.21618 13.8945 3.36097 13.4149L4.40748 9.9314L1.51353 7.72901C1.11582 7.42661 0.957586 6.9232 1.11215 6.44668C1.26671 5.97016 1.68947 5.65431 2.19043 5.64331L5.82788 5.56328L7.02713 2.12988C7.19269 1.65703 7.62278 1.35156 8.12374 1.35156C8.6247 1.35156 9.0554 1.65703 9.22035 2.12988L10.4202 5.56328L14.057 5.64331C14.5586 5.65431 14.9814 5.97016 15.1359 6.44668C15.2905 6.9232 15.1323 7.42661 14.734 7.72901L11.84 9.9314L12.8871 13.4149C13.0313 13.8951 12.8621 14.3948 12.457 14.6899C12.0508 14.9831 11.5235 14.9899 11.1124 14.7033L8.12374 12.6317L5.13448 14.7039C4.93288 14.8439 4.70256 14.9141 4.47224 14.9141V14.9141Z" fill="white"/>
</svg>
