<svg width="413" height="413" viewBox="0 0 413 413" fill="none" xmlns="http://www.w3.org/2000/svg">
<path d="M208.053 389.133C275.478 389.133 330.138 385.058 330.138 380.032C330.138 375.005 275.478 370.931 208.053 370.931C140.627 370.931 85.9678 375.005 85.9678 380.032C85.9678 385.058 140.627 389.133 208.053 389.133Z" fill="#EBE8E4"/>
<path d="M336.818 220.74C351.479 220.74 362.733 234.235 360.132 248.941C347.085 323.499 283.286 380.079 206.484 380.079C129.682 380.079 65.882 323.454 52.8351 248.941C50.2796 234.235 61.5331 220.74 76.1492 220.74H336.818Z" fill="#FFB700"/>
<path d="M336.816 220.738H111.118C99.9092 226.298 92.8253 238.896 95.2015 252.346C104.079 303.008 132.056 346.9 171.331 375.997C182.629 378.643 194.421 380.077 206.526 380.077C283.283 380.077 347.128 323.497 360.175 248.939C362.685 234.233 351.432 220.738 336.816 220.738Z" fill="#FFCE00"/>
<path d="M233.338 220.738C255.302 220.738 273.107 202.934 273.107 180.971C273.107 159.008 255.302 141.203 233.338 141.203C211.375 141.203 193.57 159.008 193.57 180.971C193.57 202.934 211.375 220.738 233.338 220.738Z" fill="#0C93F4"/>
<path d="M233.34 141.249C211.371 141.249 193.571 159.048 193.571 181.016C193.571 181.689 193.571 182.317 193.616 182.989L234.281 141.294C233.967 141.249 233.654 141.249 233.34 141.249Z" fill="#0069FF"/>
<path d="M186.846 274.719C178.014 274.719 170.795 267.501 170.795 258.668C170.795 257.099 172.051 255.844 173.62 255.844C175.189 255.844 176.444 257.099 176.444 258.668C176.444 264.362 181.107 269.025 186.801 269.025C192.495 269.025 197.158 264.362 197.158 258.668C197.158 257.099 198.413 255.844 199.983 255.844C201.552 255.844 202.807 257.099 202.807 258.668C202.897 267.501 195.723 274.719 186.846 274.719Z" fill="#413D45"/>
<path d="M226.119 274.719C217.287 274.719 210.068 267.501 210.068 258.668C210.068 257.099 211.324 255.844 212.893 255.844C214.462 255.844 215.718 257.099 215.718 258.668C215.718 264.362 220.38 269.025 226.074 269.025C231.768 269.025 236.431 264.362 236.431 258.668C236.431 257.099 237.687 255.844 239.256 255.844C240.825 255.844 242.08 257.099 242.08 258.668C242.125 267.501 234.952 274.719 226.119 274.719Z" fill="#413D45"/>
<path d="M206.485 303.232C178.866 303.232 154.297 285.702 145.375 259.564C144.882 258.085 145.644 256.47 147.168 255.932C148.648 255.439 150.262 256.201 150.8 257.726C158.96 281.533 181.332 297.538 206.529 297.538C231.727 297.538 254.099 281.533 262.259 257.726C262.752 256.246 264.366 255.439 265.891 255.932C267.37 256.426 268.177 258.04 267.684 259.564C258.672 285.702 234.103 303.232 206.485 303.232Z" fill="#413D45"/>
<path d="M252.439 108.923L140.756 214.282C131.475 223.025 116.724 222.622 107.982 213.341C99.2388 204.06 99.6423 189.31 108.923 180.568L220.606 75.2085C229.887 66.4659 244.638 66.8694 253.381 76.15C262.123 85.4305 261.72 100.136 252.439 108.923Z" fill="#FF7E1D"/>
<path d="M235.133 68.7528C245.706 68.7528 254.277 60.1817 254.277 49.6088C254.277 39.0359 245.706 30.4648 235.133 30.4648C224.56 30.4648 215.988 39.0359 215.988 49.6088C215.988 60.1817 224.56 68.7528 235.133 68.7528Z" fill="#FFCE00"/>
</svg>
