<svg width="251" height="251" viewBox="0 0 251 251" fill="none" xmlns="http://www.w3.org/2000/svg">
<mask id="mask0" mask-type="alpha" maskUnits="userSpaceOnUse" x="0" y="0" width="251" height="251">
<circle cx="125.5" cy="125.979" r="125" fill="#C4C4C4"/>
</mask>
<g mask="url(#mask0)">
<path d="M656.362 -53.9777H-366.252V219.636H656.362V-53.9777Z" fill="#32AAFF"/>
<mask id="mask1" mask-type="alpha" maskUnits="userSpaceOnUse" x="10" y="82" width="241" height="180">
<path fill-rule="evenodd" clip-rule="evenodd" d="M250.646 172.323C250.646 221.711 208.936 261.748 157.483 261.748C121.112 261.748 89.6092 241.743 74.2656 212.57C50.907 211.607 38.1824 197.005 32.2524 181.397L11.9694 176.241C10.6144 175.906 9.85481 174.744 10.3681 173.837C12.9137 169.345 19.668 167.197 26.607 168.95C29.375 169.65 31.7968 170.883 33.7002 172.436C33.6433 169.718 34.3829 166.756 35.9878 163.966C39.4574 157.936 45.7394 154.724 50.8719 156.064C51.9189 156.34 52.2474 157.66 51.5699 158.843L41.4614 176.515C46.7336 182.499 51.5028 184.313 56.2719 181.959C59.6903 180.271 61.6283 178.399 64.3224 173.088C64.3202 172.833 64.3191 172.578 64.3191 172.323C64.3191 122.935 106.03 82.8977 157.483 82.8977C208.936 82.8977 250.646 122.935 250.646 172.323Z" fill="#0C6FF9"/>
</mask>
<g mask="url(#mask1)">
<path fill-rule="evenodd" clip-rule="evenodd" d="M250.646 172.323C250.646 221.711 208.936 261.748 157.483 261.748C121.112 261.748 89.6092 241.743 74.2656 212.57C50.907 211.607 38.1824 197.005 32.2524 181.397L11.9694 176.241C10.6144 175.906 9.85481 174.744 10.3681 173.837C12.9137 169.345 19.668 167.197 26.607 168.95C29.375 169.65 31.7968 170.883 33.7002 172.436C33.6433 169.718 34.3829 166.756 35.9878 163.966C39.4574 157.936 45.7394 154.724 50.8719 156.064C51.9189 156.34 52.2474 157.66 51.5699 158.843L41.4614 176.515C46.7336 182.499 51.5028 184.313 56.2719 181.959C59.6903 180.271 61.6283 178.399 64.3224 173.088C64.3202 172.833 64.3191 172.578 64.3191 172.323C64.3191 122.935 106.03 82.8977 157.483 82.8977C208.936 82.8977 250.646 122.935 250.646 172.323Z" fill="#0C6FF9"/>
<path d="M46.8481 173.132C92.3213 198.02 119.831 191.537 145.924 182.591C177.335 171.851 172.941 131.513 201.724 122.035C233.976 111.433 275.425 156.441 267.131 219.007L53.7666 224.269L0.512634 182.276L4.65963 159.535L46.8481 143.77L60.3361 150.411L46.8481 173.132Z" fill="#084FFF"/>
<path d="M174.749 114.92C175.549 117.521 178.403 119.019 181.134 118.231C183.843 117.462 185.404 114.723 184.582 112.102" stroke="#3A3938" stroke-width="1.55574" stroke-miterlimit="10" stroke-linecap="round"/>
<path d="M198.254 108.242C199.055 110.843 197.515 113.582 194.805 114.37C192.095 115.139 189.241 113.661 188.42 111.06" stroke="#3A3938" stroke-width="1.55574" stroke-miterlimit="10" stroke-linecap="round"/>
</g>
<mask id="mask2" mask-type="alpha" maskUnits="userSpaceOnUse" x="148" y="23" width="28" height="30">
<path d="M153.17 24.5061L148.591 45.9658C148.386 46.892 149.023 47.7985 149.987 47.9955L173.453 52.6067C175.034 52.922 176.204 51.2076 175.28 49.9464L156.393 23.8756C155.489 22.6341 153.498 23.0282 153.17 24.5061Z" fill="#FAF6F4"/>
</mask>
<g mask="url(#mask2)">
<path d="M153.17 24.5061L148.591 45.9658C148.386 46.892 149.023 47.7985 149.987 47.9955L173.453 52.6067C175.034 52.922 176.204 51.2076 175.28 49.9464L156.393 23.8756C155.489 22.6341 153.498 23.0282 153.17 24.5061Z" fill="#FAF6F4"/>
<path d="M149.948 26.0816L145.37 47.5413C145.164 48.4675 145.801 49.3739 146.766 49.571L170.231 54.1822C171.812 54.4975 172.982 52.783 172.058 51.5219L153.171 25.451C152.288 24.2095 150.276 24.6036 149.948 26.0816Z" fill="#EAE7E4"/>
</g>
<path d="M142.27 68.8851C141.203 68.6683 140.505 67.6633 140.731 66.6386L150.646 20.1919C150.872 19.1672 151.919 18.4972 152.987 18.7139C154.054 18.9307 154.752 19.9357 154.526 20.9604L144.611 67.4071C144.385 68.4318 143.338 69.0821 142.27 68.8851Z" fill="#FFCE00"/>
<mask id="mask3" mask-type="alpha" maskUnits="userSpaceOnUse" x="128" y="55" width="48" height="28">
<path d="M171.852 63.073C174.5 63.5854 175.958 66.3245 174.87 68.7089C170.374 78.4633 159.288 84.2568 147.956 82.03C136.623 79.8033 128.781 70.3051 128.658 59.6442C128.617 57.043 131.101 55.0724 133.749 55.6045L171.852 63.073Z" fill="#FFCE00"/>
</mask>
<g mask="url(#mask3)">
<path d="M171.852 63.073C174.5 63.5854 175.958 66.3245 174.87 68.7089C170.374 78.4633 159.288 84.2568 147.956 82.03C136.623 79.8033 128.781 70.3051 128.658 59.6442C128.617 57.043 131.101 55.0724 133.749 55.6045L171.852 63.073Z" fill="#FFCE00"/>
<path d="M135.435 80.8288C146.48 80.2179 165.634 67.3894 167.338 56.6694L185.322 60.1967L177.747 95.7659L141.512 88.652L135.435 80.8288Z" fill="#FFB700"/>
</g>
<path d="M35.5355 182.233C36.8905 182.588 38.1633 181.938 38.1839 180.913C38.307 175.809 33.5442 170.706 26.6051 168.952C19.6661 167.198 12.9118 169.346 10.3662 173.839C9.85292 174.745 10.6125 175.908 11.9675 176.243L35.5355 182.233Z" fill="#084FFF"/>
<path d="M39.8455 179.338C39.168 180.52 37.8131 180.954 37.0124 180.264C33.0912 176.835 32.5164 169.997 35.9859 163.967C39.4554 157.937 45.7375 154.725 50.8699 156.065C51.9169 156.341 52.2454 157.662 51.5679 158.844L39.8455 179.338Z" fill="#084FFF"/>
<path d="M283.842 176.204C267.356 176.204 244.425 209.764 225.722 209.764C207.02 209.764 212.809 189.053 196.324 186.57C179.838 184.067 165.529 212.976 150.378 212.976C135.227 212.976 123.484 185.269 99.8753 184.422C70.3536 183.358 53.355 209.764 27.5287 209.764C1.70237 209.764 -3.20422 189.053 -3.20422 189.053V254.358H298.972L283.842 176.204Z" fill="#FAF6F4"/>
</g>
</svg>
