<svg width="251" height="251" viewBox="0 0 251 251" fill="none" xmlns="http://www.w3.org/2000/svg">
<mask id="mask0" mask-type="alpha" maskUnits="userSpaceOnUse" x="0" y="0" width="251" height="251">
<path d="M125.5 250.979C194.536 250.979 250.5 195.015 250.5 125.979C250.5 56.9437 194.536 0.979248 125.5 0.979248C56.4644 0.979248 0.5 56.9437 0.5 125.979C0.5 195.015 56.4644 250.979 125.5 250.979Z" fill="#101340"/>
</mask>
<g mask="url(#mask0)">
<path d="M125.5 271.979C206.134 271.979 271.5 206.613 271.5 125.979C271.5 45.3457 206.134 -20.0208 125.5 -20.0208C44.8664 -20.0208 -20.5 45.3457 -20.5 125.979C-20.5 206.613 44.8664 271.979 125.5 271.979Z" fill="#101340"/>
<path opacity="0.7" d="M233.06 123.843C232.986 64.4032 185.44 16.2779 126.866 16.3523C68.2916 16.4267 20.8672 64.6759 20.9405 124.116C21.0138 183.555 68.5604 231.681 127.134 231.606C185.708 231.532 233.133 183.283 233.06 123.843Z" fill="#281466"/>
<path d="M212.72 124.028C212.66 76.7363 174.272 38.4466 126.981 38.5058C79.6891 38.565 41.3994 76.9532 41.4586 124.245C41.5178 171.536 79.906 209.826 127.198 209.767C174.489 209.708 212.779 171.319 212.72 124.028Z" fill="#3B197F"/>
<path d="M88.5686 88.9405C91.5196 92.9257 96.7602 94.832 101.78 93.2981C106.794 91.7733 110.094 87.267 110.32 82.3047" stroke="#5431A5" stroke-width="5.75104" stroke-miterlimit="10" stroke-linecap="round" stroke-linejoin="round"/>
<path d="M121.178 79.0018C124.129 82.9869 129.37 84.8932 134.39 83.3593C139.404 81.8345 142.703 77.3283 142.929 72.366" stroke="#5431A5" stroke-width="5.75104" stroke-miterlimit="10" stroke-linecap="round" stroke-linejoin="round"/>
<path d="M68.4254 104.528C85.2743 112.613 105.084 114.658 124.375 108.776C143.665 102.894 158.975 90.1629 168.453 74.0484" stroke="#5431A5" stroke-width="5.75104" stroke-miterlimit="10" stroke-linecap="round" stroke-linejoin="round"/>
<path d="M68.9345 174.376C67.6431 174.327 66.404 174.485 65.2395 174.828C64.2901 175.104 63.2874 174.661 62.8925 173.756C61.134 169.761 57.1291 166.972 52.4834 166.98C47.8377 166.988 43.8425 169.792 42.0981 173.793C41.7064 174.699 40.6979 175.153 39.7549 174.873C38.5892 174.534 37.3421 174.372 36.0583 174.434C30.196 174.697 25.4474 179.49 25.235 185.35C25.0015 191.812 30.1835 197.121 36.5954 197.11L68.492 197.054C74.904 197.043 80.0598 191.715 79.811 185.254C79.5632 179.394 74.7903 174.618 68.9345 174.376Z" fill="#281466"/>
<mask id="mask1" mask-type="alpha" maskUnits="userSpaceOnUse" x="32" y="34" width="182" height="185">
<path d="M117.04 133.033C95.2829 110.88 90.3744 78.4651 102.172 51.6822C104.11 47.2783 99.7298 42.7946 95.2694 44.5843C76.2972 52.1879 59.4688 66.8259 48.7884 88.6038C37.8103 110.991 37.7942 137.42 48.6421 159.873C76.2555 217.018 146.824 225.867 187.586 185.79C196.731 176.796 203.441 166.259 207.708 155.001C209.402 150.53 204.83 146.237 200.493 148.247C173.06 160.963 139.454 155.852 117.04 133.033Z" fill="#727CE5"/>
</mask>
<g mask="url(#mask1)">
<path d="M117.04 133.033C95.2829 110.88 90.3744 78.4651 102.172 51.6822C104.11 47.2783 99.7298 42.7946 95.2694 44.5843C76.2972 52.1879 59.4688 66.8259 48.7884 88.6038C37.8103 110.991 37.7942 137.42 48.6421 159.873C76.2555 217.018 146.824 225.867 187.586 185.79C196.731 176.796 203.441 166.259 207.708 155.001C209.402 150.53 204.83 146.237 200.493 148.247C173.06 160.963 139.454 155.852 117.04 133.033Z" fill="#8251A8"/>
<circle cx="121.769" cy="105.782" r="93.3279" transform="rotate(-0.100741 121.769 105.782)" fill="#A273C6"/>
<path d="M68.9345 174.376C67.6431 174.327 66.404 174.485 65.2395 174.828C64.2901 175.104 63.2874 174.661 62.8925 173.756C61.134 169.761 57.1291 166.972 52.4834 166.98C47.8377 166.988 43.8425 169.792 42.0981 173.793C41.7064 174.699 40.6979 175.153 39.7549 174.873C38.5892 174.534 37.3421 174.372 36.0583 174.434C30.196 174.697 25.4474 179.49 25.235 185.35C25.0015 191.812 30.1835 197.121 36.5954 197.11L68.492 197.054C74.904 197.043 80.0598 191.715 79.811 185.254C79.5632 179.394 74.7903 174.618 68.9345 174.376Z" fill="#613889"/>
<path d="M88.5686 88.9405C91.5196 92.9257 96.7602 94.832 101.78 93.2981C106.794 91.7733 110.094 87.267 110.32 82.3047" stroke="#B89FD1" stroke-width="5.75104" stroke-miterlimit="10" stroke-linecap="round" stroke-linejoin="round"/>
<path d="M121.178 79.0018C124.129 82.9869 129.37 84.8932 134.39 83.3593C139.404 81.8345 142.703 77.3283 142.929 72.366" stroke="#B89FD1" stroke-width="5.75104" stroke-miterlimit="10" stroke-linecap="round" stroke-linejoin="round"/>
<path d="M68.4254 104.528C85.2743 112.613 105.084 114.658 124.375 108.776C143.665 102.894 158.975 90.1629 168.453 74.0484" stroke="#B89FD1" stroke-width="5.75104" stroke-miterlimit="10" stroke-linecap="round" stroke-linejoin="round"/>
</g>
<path d="M86.2446 162.959C84.9539 162.908 83.715 163.063 82.5504 163.405C81.6009 163.679 80.5994 163.234 80.206 162.33C78.4547 158.335 74.4557 155.54 69.8119 155.541C65.168 155.542 61.17 158.338 59.42 162.334C59.027 163.238 58.0182 163.691 57.076 163.409C55.9113 163.068 54.665 162.905 53.3816 162.965C47.5212 163.218 42.7669 168 42.5453 173.857C42.3016 180.314 47.4731 185.629 53.8825 185.628L85.7663 185.622C92.1757 185.621 97.3379 180.305 97.0995 173.848C96.8611 167.984 92.0977 163.203 86.2446 162.959Z" fill="#B89FD1"/>
<path d="M170.613 123.954L171.773 124.235L170.624 124.56C169.238 124.951 168.171 126.031 167.824 127.396L167.535 128.526L167.201 127.408C166.801 126.058 165.693 125.021 164.292 124.684L163.132 124.404L164.281 124.078C165.667 123.687 166.734 122.607 167.081 121.243L167.37 120.113L167.703 121.23C168.104 122.576 169.212 123.613 170.613 123.954Z" fill="#B89FD1"/>
<path d="M185.924 113.181L187.989 112.634L185.924 112.086C183.445 111.435 181.517 109.553 180.863 107.156L180.312 105.171L179.762 107.156C179.107 109.553 177.145 111.401 174.667 112.052L172.601 112.565L174.667 113.113C177.145 113.763 179.073 115.646 179.727 118.043L180.278 120.028L180.829 118.043C181.517 115.715 183.445 113.832 185.924 113.181Z" fill="#A273C6"/>
<path d="M74.6509 212.354L76.3259 212.801L74.6532 213.256C72.6367 213.804 71.0625 215.386 70.525 217.406L70.0784 219.081L69.6231 217.408C69.0752 215.391 67.4927 213.817 65.4735 213.28L63.7984 212.833L65.4711 212.378C67.4876 211.83 69.0619 210.247 69.5994 208.228L70.046 206.553L70.5013 208.226C71.0492 210.242 72.6316 211.817 74.6509 212.354Z" fill="#5431A5"/>
</g>
</svg>
